<svg id="Layer_1" enable-background="new 0 0 512 512" height="512" viewBox="0 0 512 512" width="512" xmlns="http://www.w3.org/2000/svg"><g><g><g><circle cx="256" cy="256" fill="#f58caa" r="168"/></g><g><path d="m256 96c42.738 0 82.917 16.643 113.137 46.863s46.863 70.4 46.863 113.137-16.643 82.917-46.863 113.137-70.399 46.863-113.137 46.863-82.917-16.643-113.137-46.863-46.863-70.4-46.863-113.137 16.643-82.917 46.863-113.137 70.399-46.863 113.137-46.863m0-16c-97.202 0-176 78.798-176 176s78.798 176 176 176 176-78.798 176-176-78.798-176-176-176z" fill="#fac3c8"/></g></g><g><g><path d="m300.444 223.556h55.556v7.407h-55.556z" fill="#fac3c8" transform="matrix(-1 0 0 -1 656.445 454.519)"/></g><g><path d="m156 223.556h55.556v7.407h-55.556z" fill="#fac3c8"/></g><g><path d="m267.111 368h-22.222c-6.136 0-11.111-4.975-11.111-11.111v-25.926h44.444v25.926c0 6.136-4.974 11.111-11.111 11.111z" fill="#f05a4b"/></g><g><path d="m333.778 190.222v11.111c0 6.136-4.975 11.111-11.111 11.111-6.137 0-11.111 4.975-11.111 11.111 0 14.229-5.652 27.875-15.713 37.936-11.282 11.282-17.62 26.583-17.62 42.538v26.934c0 6.136-4.975 11.111-11.111 11.111-6.137 0-11.111-4.975-11.111-11.111 0 6.136-4.975 11.111-11.111 11.111-6.136 0-11.111-4.975-11.111-11.111v-28.98c0-14.734-5.407-28.955-15.195-39.967l-.883-.993c-8.729-9.821-13.551-22.503-13.551-35.643v-1.825c0-6.136-4.975-11.111-11.111-11.111h-3.704c-6.136 0-11.111-4.975-11.111-11.111v-11.111z" fill="#fab991"/></g><g><path d="m200.444 190.222c12.273 0 22.222 9.949 22.222 22.222 0 14.425 4.679 28.46 13.333 40l6.667 8.889c8.655 11.54 13.333 25.575 13.333 40 0-14.425 4.679-28.46 13.333-40l6.667-8.889c8.655-11.54 13.333-25.575 13.333-40 0-12.273 9.949-22.222 22.222-22.222z" fill="#d73728"/></g><g><path d="m311.556 168h-111.112c-12.273 0-22.222 9.949-22.222 22.222h155.556c0-12.273-9.949-22.222-22.222-22.222z" fill="#fab991"/></g><g><path d="m178.222 190.222h-22.222c-12.273 0-22.222 9.949-22.222 22.222 0 12.273 9.949 22.222 22.222 22.222v-14.815h-1.852c-5.114 0-9.259-4.146-9.259-9.259 0-5.114 4.146-9.259 9.259-9.259h24.074z" fill="#f05a4b"/></g><g><path d="m174.519 242.074h-11.574c-3.835 0-6.944-3.109-6.944-6.944v-15.741c0-3.835 3.109-6.944 6.944-6.944h11.574c8.182 0 14.815 6.633 14.815 14.815-.001 8.181-6.633 14.814-14.815 14.814z" fill="#fac3c8"/></g><g><path d="m333.778 190.222h22.222c12.273 0 22.222 9.949 22.222 22.222 0 12.273-9.949 22.222-22.222 22.222v-14.815h1.852c5.114 0 9.259-4.146 9.259-9.259 0-5.114-4.146-9.259-9.259-9.259h-24.074z" fill="#f05a4b"/></g><g><path d="m337.481 242.074h11.574c3.835 0 6.944-3.109 6.944-6.944v-15.741c0-3.835-3.109-6.944-6.944-6.944h-11.574c-8.182 0-14.815 6.633-14.815 14.815.001 8.181 6.633 14.814 14.815 14.814z" fill="#fac3c8"/></g><g><path d="m236 252.444 6.666 8.889c8.655 11.54 13.333 25.575 13.333 40 0-14.425 4.679-28.46 13.333-40l6.666-8.889c.091-.121.181-.242.27-.363 12.124-16.396.122-39.637-20.27-39.637-20.392 0-32.395 23.24-20.27 39.637.092.121.182.242.272.363z" fill="#f05a4b"/></g></g><g fill="#f58caa"><path d="m503.391 252.938c-1.238-2.989-4.155-4.938-7.391-4.938h-16.156c-1.982-56.832-25.036-109.976-65.452-150.392-42.308-42.308-98.559-65.608-158.392-65.608s-116.084 23.3-158.392 65.607l11.313 11.314c39.287-39.285 91.52-60.921 147.079-60.921 112.011 0 203.611 89.003 207.831 200h-15.831c-3.236 0-6.153 1.949-7.391 4.938s-.554 6.431 1.734 8.719l24 24c1.562 1.562 3.609 2.343 5.657 2.343s4.095-.781 5.657-2.343l24-24c2.288-2.288 2.972-5.729 1.734-8.719z"/><path d="m403.078 403.078c-39.286 39.286-91.519 60.922-147.078 60.922-112.011 0-203.611-89.003-207.831-200h15.831c3.236 0 6.153-1.949 7.391-4.938s.554-6.431-1.734-8.719l-24-24c-3.124-3.123-8.189-3.123-11.313 0l-24 24c-2.288 2.288-2.973 5.729-1.734 8.719s4.154 4.938 7.39 4.938h16.156c1.982 56.832 25.036 109.976 65.452 150.392 42.308 42.308 98.559 65.608 158.392 65.608s116.084-23.3 158.392-65.607z"/></g></g></svg>